# xmcd
#
# Track frame offsets:
#	150
#	33160
#	62140
#	88276
#	108946
#	132873
#	154549
#	175993
#	195421
#	233148
#	276825
#	292261
#	327550
#
# Disc length: 4789 seconds
#
# Revision: 2
# Processed by: cddbd v1.5.2PL0 Copyright (c) Steve Scherf et al.
# Submitted via: audiograbber 1.83.01
#
DISCID=bb12b30d
DTITLE=—борник - Time Blues  vol.24
DYEAR=2008
DGENRE=Blues
TTITLE0=Jimmy T99 Nelson - By Christmas Ill be Home
TTITLE1=Fatt Cat Freddie - Take this Blues
TTITLE2=The Mike Reilly Band - Queen of Hearts
TTITLE3=Sol Fiya - Blood is only Young
TTITLE4=The Nelson Adelard Band - Black and Blue
TTITLE5=Wally B. - Hummingbird Blues
TTITLE6=Blue Max - Blue and Lonesome
TTITLE7=Mike Henderson and The Blue Bloods - So sad to be Lonesome
TTITLE8=Al and The Coholics - Going down slow
TTITLE9=John O'Leary and Dr. Project Point Black Blues Band - Drinking Again
TTITLE10=Los Lonely Boys - Tell My why
TTITLE11=Pat Coast - Trouble
TTITLE12=Marva Wright - Id rather go blind
EXTD=
EXTT0=
EXTT1=
EXTT2=
EXTT3=
EXTT4=
EXTT5=
EXTT6=
EXTT7=
EXTT8=
EXTT9=
EXTT10=
EXTT11=
EXTT12=
PLAYORDER=
